<svg width="217" height="214" viewBox="0 0 217 214" fill="none" xmlns="http://www.w3.org/2000/svg">
<path d="M101.488 2.4897C105.907 0.881507 110.751 0.881507 115.169 2.4897L172.195 23.2454C176.614 24.8536 180.324 27.9672 182.675 32.0393L213.018 84.5945C215.369 88.6666 216.21 93.4369 215.394 98.0675L204.856 157.831C204.039 162.462 201.617 166.657 198.015 169.679L151.527 208.687C147.925 211.709 143.374 213.366 138.672 213.366H77.986C73.284 213.366 68.7323 211.709 65.1303 208.687L18.6424 169.679C15.0404 166.657 12.6185 162.462 11.802 157.831L1.26406 98.0675C0.447553 93.4369 1.28868 88.6666 3.6397 84.5946L33.9825 32.0393C36.3335 27.9672 40.0441 24.8536 44.4626 23.2454L101.488 2.4897Z" fill="#026A00"/>
<g filter="url(#filter0_i_88_59)">
<circle cx="108.329" cy="110" r="97" fill="#80DF7E"/>
</g>
<g filter="url(#filter1_f_88_59)">
<circle cx="108.829" cy="110.5" r="88.5" fill="#41B93F"/>
</g>
<path d="M78.73 77.4965L49.4743 66.4966L78.9774 56L108.141 66.698L78.73 77.4965ZM80.6363 103.037C86.8881 101.051 93.2147 101.298 99.0626 103.313L110.371 81.3836V69.967L80.6363 80.8845V103.037ZM131.934 56.3381L131.987 144.536L169.329 128.691L131.934 56.3381ZM102.59 104.83C110.13 109.021 115.775 115.136 116.628 124.327C116.038 131.311 113.166 137.736 108.388 142.644C103.273 147.897 96.3679 150.911 89.442 150.911C82.4658 150.911 75.5235 148.355 70.3947 143.898C65.118 139.314 62.1931 133.168 62.1421 126.577C62.378 117.198 66.5806 109.561 76.8078 104.57V80.873L47.3289 69.7895V108.973L63.3309 116.3C60.2332 121.126 58.4351 126.87 58.4351 133.035C58.4351 150.137 72.2619 164 89.3181 164C103.751 164 115.871 154.072 119.257 140.656L127.648 144.537L127.595 56.3385L102.59 104.83Z" fill="white"/>
<defs>
<filter id="filter0_i_88_59" x="11.3289" y="13" width="194" height="198" filterUnits="userSpaceOnUse" color-interpolation-filters="sRGB">
<feFlood flood-opacity="0" result="BackgroundImageFix"/>
<feBlend mode="normal" in="SourceGraphic" in2="BackgroundImageFix" result="shape"/>
<feColorMatrix in="SourceAlpha" type="matrix" values="0 0 0 0 0 0 0 0 0 0 0 0 0 0 0 0 0 0 127 0" result="hardAlpha"/>
<feOffset dy="4"/>
<feGaussianBlur stdDeviation="2"/>
<feComposite in2="hardAlpha" operator="arithmetic" k2="-1" k3="1"/>
<feColorMatrix type="matrix" values="0 0 0 0 0 0 0 0 0 0 0 0 0 0 0 0 0 0 0.25 0"/>
<feBlend mode="normal" in2="shape" result="effect1_innerShadow_88_59"/>
</filter>
<filter id="filter1_f_88_59" x="16.3289" y="18" width="185" height="185" filterUnits="userSpaceOnUse" color-interpolation-filters="sRGB">
<feFlood flood-opacity="0" result="BackgroundImageFix"/>
<feBlend mode="normal" in="SourceGraphic" in2="BackgroundImageFix" result="shape"/>
<feGaussianBlur stdDeviation="2" result="effect1_foregroundBlur_88_59"/>
</filter>
</defs>
</svg>
