<svg width="221" height="216" viewBox="0 0 221 216" fill="none" xmlns="http://www.w3.org/2000/svg">
<path d="M110.5 0L138.845 31.8849L181.528 25.2672L182.272 67.5L219.321 89.246L192.116 122.066L206.196 162L163.771 170.05L148.293 209.487L110.5 189L72.7068 209.487L57.229 170.05L14.8042 162L28.8841 122.066L1.67874 89.246L38.7281 67.5L39.472 25.2672L82.1551 31.8849L110.5 0Z" fill="#00376B"/>
<g filter="url(#filter0_i_88_95)">
<path d="M110.5 14L135.254 41.7517L172.529 35.9918L173.179 72.75L205.534 91.6771L181.775 120.242L194.071 155L157.022 162.006L143.505 196.331L110.5 178.5L77.4951 196.331L63.9782 162.006L26.9286 155L39.2245 120.242L15.466 91.6771L47.8214 72.75L48.471 35.9918L85.7463 41.7517L110.5 14Z" fill="#4293DF"/>
</g>
<path d="M107.133 108.474C107.133 104.742 105.818 101.555 103.188 98.9148C100.558 96.2743 97.384 94.954 93.6667 94.954C89.9493 94.954 86.7755 96.2743 84.1453 98.9148C81.5151 101.555 80.2 104.742 80.2 108.474C80.2 112.206 81.5151 115.392 84.1453 118.032C86.7755 120.673 89.9493 121.993 93.6667 121.993C97.384 121.993 100.558 120.673 103.188 118.032C105.818 115.392 107.133 112.206 107.133 108.474ZM147.533 135.513C147.533 133.682 146.867 132.098 145.534 130.76C144.202 129.422 142.624 128.753 140.8 128.753C138.976 128.753 137.398 129.422 136.066 130.76C134.733 132.098 134.067 133.682 134.067 135.513C134.067 137.379 134.724 138.972 136.039 140.292C137.354 141.612 138.941 142.273 140.8 142.273C142.659 142.273 144.246 141.612 145.561 140.292C146.876 138.972 147.533 137.379 147.533 135.513ZM147.533 81.4344C147.533 79.6036 146.867 78.0193 145.534 76.6814C144.202 75.3436 142.624 74.6746 140.8 74.6746C138.976 74.6746 137.398 75.3436 136.066 76.6814C134.733 78.0193 134.067 79.6036 134.067 81.4344C134.067 83.3004 134.724 84.8935 136.039 86.2138C137.354 87.5341 138.941 88.1942 140.8 88.1942C142.659 88.1942 144.246 87.5341 145.561 86.2138C146.876 84.8935 147.533 83.3004 147.533 81.4344ZM127.333 103.668V113.438C127.333 113.79 127.211 114.133 126.965 114.468C126.72 114.802 126.439 114.987 126.123 115.022L117.97 116.29C117.584 117.522 117.023 118.86 116.286 120.303C117.479 121.993 119.057 124.018 121.021 126.376C121.266 126.764 121.389 127.116 121.389 127.433C121.389 127.855 121.266 128.19 121.021 128.436C120.214 129.492 118.768 131.068 116.681 133.163C114.594 135.258 113.218 136.305 112.552 136.305C112.166 136.305 111.798 136.182 111.447 135.935L105.397 131.182C104.1 131.851 102.75 132.397 101.347 132.819C100.961 136.622 100.558 139.35 100.137 141.005C99.8915 141.85 99.3655 142.273 98.5589 142.273H88.7745C88.3887 142.273 88.038 142.141 87.7224 141.876C87.4068 141.612 87.2314 141.304 87.1964 140.952L85.9865 132.872C84.7941 132.52 83.479 131.974 82.0411 131.235L75.8339 135.935C75.5884 136.182 75.2377 136.305 74.7818 136.305C74.396 136.305 74.0278 136.164 73.6771 135.882C68.6271 131.2 66.1021 128.383 66.1021 127.433C66.1021 127.116 66.2248 126.781 66.4703 126.429C66.821 125.936 67.5399 125.003 68.6271 123.63C69.7142 122.257 70.5384 121.183 71.0995 120.409C70.2929 118.86 69.6792 117.416 69.2583 116.078L61.2625 114.811C60.9118 114.776 60.6137 114.608 60.3682 114.309C60.1227 114.01 60 113.667 60 113.279V103.509C60 103.157 60.1227 102.814 60.3682 102.48C60.6137 102.145 60.8943 101.96 61.2099 101.925L69.3635 100.658C69.7493 99.4253 70.3104 98.0875 71.0469 96.644C69.8545 94.954 68.2764 92.9296 66.3125 90.5707C66.067 90.1834 65.9443 89.8313 65.9443 89.5145C65.9443 89.092 66.067 88.7399 66.3125 88.4583C67.084 87.402 68.5219 85.8353 70.626 83.7581C72.7302 81.6809 74.1155 80.6422 74.7818 80.6422C75.1675 80.6422 75.5358 80.7655 75.8865 81.0119L81.9359 85.7649C83.1283 85.1312 84.4785 84.5679 85.9865 84.075C86.3722 80.2726 86.7755 77.5616 87.1964 75.9421C87.4418 75.0971 87.9679 74.6746 88.7745 74.6746H98.5589C98.9446 74.6746 99.2953 74.8066 99.6109 75.0707C99.9266 75.3348 100.102 75.6428 100.137 75.9949L101.347 84.075C102.539 84.427 103.854 84.9727 105.292 85.7121L111.499 81.0119C111.78 80.7655 112.131 80.6422 112.552 80.6422C112.937 80.6422 113.306 80.7831 113.656 81.0647C118.706 85.7473 121.231 88.5639 121.231 89.5145C121.231 89.7961 121.109 90.1306 120.863 90.5179C120.442 91.0812 119.706 92.0318 118.654 93.3697C117.602 94.7076 116.812 95.7638 116.286 96.5383C117.093 98.2283 117.689 99.6718 118.075 100.869L126.071 102.083C126.422 102.154 126.72 102.339 126.965 102.638C127.211 102.937 127.333 103.281 127.333 103.668ZM161 131.816V139.21C161 139.773 158.387 140.319 153.162 140.847C152.741 141.797 152.215 142.713 151.584 143.593C153.372 147.571 154.267 150.001 154.267 150.881C154.267 151.022 154.197 151.145 154.056 151.25C149.778 153.75 147.603 155 147.533 155C147.253 155 146.446 154.173 145.114 152.518C143.781 150.863 142.869 149.666 142.378 148.927C141.677 148.997 141.151 149.032 140.8 149.032C140.449 149.032 139.923 148.997 139.222 148.927C138.731 149.666 137.819 150.863 136.486 152.518C135.154 154.173 134.347 155 134.067 155C133.997 155 131.822 153.75 127.544 151.25C127.403 151.145 127.333 151.022 127.333 150.881C127.333 150.001 128.228 147.571 130.016 143.593C129.385 142.713 128.859 141.797 128.438 140.847C123.213 140.319 120.6 139.773 120.6 139.21V131.816C120.6 131.253 123.213 130.707 128.438 130.179C128.894 129.158 129.42 128.242 130.016 127.433C128.228 123.454 127.333 121.025 127.333 120.145C127.333 120.004 127.403 119.881 127.544 119.775C127.684 119.705 128.298 119.353 129.385 118.719C130.472 118.085 131.507 117.487 132.489 116.923C133.47 116.36 133.997 116.078 134.067 116.078C134.347 116.078 135.154 116.897 136.486 118.534C137.819 120.171 138.731 121.359 139.222 122.099C139.923 122.028 140.449 121.993 140.8 121.993C141.151 121.993 141.677 122.028 142.378 122.099C144.167 119.599 145.78 117.627 147.218 116.184L147.533 116.078C147.674 116.078 149.848 117.311 154.056 119.775C154.197 119.881 154.267 120.004 154.267 120.145C154.267 121.025 153.372 123.454 151.584 127.433C152.18 128.242 152.706 129.158 153.162 130.179C158.387 130.707 161 131.253 161 131.816ZM161 77.7376V85.1312C161 85.6945 158.387 86.2402 153.162 86.7683C152.741 87.7189 152.215 88.6343 151.584 89.5145C153.372 93.4929 154.267 95.9222 154.267 96.8024C154.267 96.9432 154.197 97.0664 154.056 97.1721C149.778 99.6718 147.603 100.922 147.533 100.922C147.253 100.922 146.446 100.094 145.114 98.4395C143.781 96.7848 142.869 95.5877 142.378 94.8484C141.677 94.9188 141.151 94.954 140.8 94.954C140.449 94.954 139.923 94.9188 139.222 94.8484C138.731 95.5877 137.819 96.7848 136.486 98.4395C135.154 100.094 134.347 100.922 134.067 100.922C133.997 100.922 131.822 99.6718 127.544 97.1721C127.403 97.0664 127.333 96.9432 127.333 96.8024C127.333 95.9222 128.228 93.4929 130.016 89.5145C129.385 88.6343 128.859 87.7189 128.438 86.7683C123.213 86.2402 120.6 85.6945 120.6 85.1312V77.7376C120.6 77.1743 123.213 76.6286 128.438 76.1005C128.894 75.0795 129.42 74.1641 130.016 73.3543C128.228 69.3759 127.333 66.9466 127.333 66.0664C127.333 65.9256 127.403 65.8024 127.544 65.6968C127.684 65.6263 128.298 65.2743 129.385 64.6405C130.472 64.0068 131.507 63.4083 132.489 62.845C133.47 62.2817 133.997 62 134.067 62C134.347 62 135.154 62.8186 136.486 64.4557C137.819 66.0928 138.731 67.2811 139.222 68.0204C139.923 67.95 140.449 67.9148 140.8 67.9148C141.151 67.9148 141.677 67.95 142.378 68.0204C144.167 65.5207 145.78 63.5491 147.218 62.1056L147.533 62C147.674 62 149.848 63.2323 154.056 65.6968C154.197 65.8024 154.267 65.9256 154.267 66.0664C154.267 66.9466 153.372 69.3759 151.584 73.3543C152.18 74.1641 152.706 75.0795 153.162 76.1005C158.387 76.6286 161 77.1743 161 77.7376Z" fill="white"/>
<defs>
<filter id="filter0_i_88_95" x="15.4661" y="14" width="190.068" height="186.331" filterUnits="userSpaceOnUse" color-interpolation-filters="sRGB">
<feFlood flood-opacity="0" result="BackgroundImageFix"/>
<feBlend mode="normal" in="SourceGraphic" in2="BackgroundImageFix" result="shape"/>
<feColorMatrix in="SourceAlpha" type="matrix" values="0 0 0 0 0 0 0 0 0 0 0 0 0 0 0 0 0 0 127 0" result="hardAlpha"/>
<feOffset dy="4"/>
<feGaussianBlur stdDeviation="2"/>
<feComposite in2="hardAlpha" operator="arithmetic" k2="-1" k3="1"/>
<feColorMatrix type="matrix" values="0 0 0 0 0 0 0 0 0 0 0 0 0 0 0 0 0 0 0.25 0"/>
<feBlend mode="normal" in2="shape" result="effect1_innerShadow_88_95"/>
</filter>
</defs>
</svg>
