<svg width="256" height="256" viewBox="0 0 256 256" fill="none" xmlns="http://www.w3.org/2000/svg">
<g filter="url(#filter0_i_88_79)">
<path d="M125.061 7.13525C126.814 5.86203 129.186 5.86203 130.939 7.13525L242.041 87.8557C243.793 89.1289 244.527 91.3857 243.857 93.4458L201.42 224.054C200.751 226.114 198.831 227.509 196.665 227.509H59.3351C57.169 227.509 55.2492 226.114 54.5798 224.054L12.1426 93.4458C11.4732 91.3857 12.2065 89.1289 13.959 87.8557L125.061 7.13525Z" fill="url(#paint0_linear_88_79)"/>
</g>
<circle cx="128" cy="128" r="72" fill="#720035"/>
<path fill-rule="evenodd" clip-rule="evenodd" d="M92.161 92.161C86 98.3304 86 108.245 86 128.083C86 147.921 86 157.84 92.161 164.001C98.3304 170.167 108.245 170.167 128.083 170.167C147.921 170.167 157.84 170.167 164.001 164.001C170.167 157.845 170.167 147.921 170.167 128.083C170.167 108.245 170.167 98.3262 164.001 92.161C157.845 86 147.921 86 128.083 86C108.245 86 98.3262 86 92.161 92.161ZM104.618 117.647C105.154 117.004 105.923 116.6 106.756 116.525C107.589 116.449 108.419 116.707 109.062 117.243L110.227 118.211C112.773 120.332 114.941 122.137 116.439 123.799C118.034 125.567 119.275 127.591 119.275 130.187C119.275 132.784 118.034 134.812 116.439 136.576C114.941 138.238 112.773 140.043 110.227 142.164L109.062 143.132C108.745 143.409 108.376 143.62 107.976 143.753C107.577 143.885 107.155 143.936 106.735 143.903C106.316 143.87 105.907 143.754 105.533 143.56C105.16 143.367 104.828 143.101 104.559 142.777C104.289 142.454 104.087 142.08 103.965 141.678C103.842 141.275 103.801 140.852 103.844 140.433C103.887 140.015 104.013 139.609 104.216 139.24C104.418 138.871 104.692 138.546 105.022 138.284L106.006 137.464C108.78 135.149 110.593 133.634 111.755 132.346C112.858 131.126 112.963 130.549 112.963 130.187C112.963 129.826 112.858 129.253 111.755 128.029C110.589 126.741 108.78 125.222 106.006 122.911L105.022 122.091C104.379 121.555 103.975 120.786 103.9 119.952C103.824 119.119 104.082 118.29 104.618 117.647ZM152.281 140.708C152.281 141.545 151.949 142.348 151.357 142.94C150.765 143.532 149.962 143.865 149.125 143.865H128.083C127.246 143.865 126.443 143.532 125.852 142.94C125.26 142.348 124.927 141.545 124.927 140.708C124.927 139.871 125.26 139.068 125.852 138.477C126.443 137.885 127.246 137.552 128.083 137.552H149.125C149.962 137.552 150.765 137.885 151.357 138.477C151.949 139.068 152.281 139.871 152.281 140.708Z" fill="white"/>
<path d="M133.878 10.4508L237.98 86.0852C241.484 88.6316 242.951 93.1453 241.612 97.2655L201.849 219.644C200.51 223.765 196.671 226.554 192.338 226.554H63.6616C59.3294 226.554 55.4898 223.765 54.1511 219.644L14.3878 97.2655C13.049 93.1452 14.5156 88.6316 18.0205 86.0851L122.122 10.4508C125.627 7.90441 130.373 7.90441 133.878 10.4508Z" stroke="#720035" stroke-width="10"/>
<defs>
<filter id="filter0_i_88_79" x="11.8976" y="6.18034" width="232.205" height="225.329" filterUnits="userSpaceOnUse" color-interpolation-filters="sRGB">
<feFlood flood-opacity="0" result="BackgroundImageFix"/>
<feBlend mode="normal" in="SourceGraphic" in2="BackgroundImageFix" result="shape"/>
<feColorMatrix in="SourceAlpha" type="matrix" values="0 0 0 0 0 0 0 0 0 0 0 0 0 0 0 0 0 0 127 0" result="hardAlpha"/>
<feOffset dy="4"/>
<feGaussianBlur stdDeviation="2"/>
<feComposite in2="hardAlpha" operator="arithmetic" k2="-1" k3="1"/>
<feColorMatrix type="matrix" values="0 0 0 0 0.00833333 0 0 0 0 0.00833333 0 0 0 0 0.00833333 0 0 0 0.25 0"/>
<feBlend mode="normal" in2="shape" result="effect1_innerShadow_88_79"/>
</filter>
<linearGradient id="paint0_linear_88_79" x1="128" y1="5" x2="128" y2="251" gradientUnits="userSpaceOnUse">
<stop stop-color="#FFA5CF"/>
<stop offset="1" stop-color="#9E004A"/>
</linearGradient>
</defs>
</svg>
