<svg width="47" height="56" viewBox="0 0 47 56" fill="none" xmlns="http://www.w3.org/2000/svg">
<path d="M46.8572 0L46.8572 55.2727L23.4286 40.7273L3.43323e-05 55.2727L3.43323e-05 0L46.8572 0Z" fill="#FFDD35"/>
<path d="M8 12.1667H33.4889C35.4178 12.1667 36.3822 12.1667 37.1193 12.5421C37.7674 12.8723 38.2943 13.3992 38.6246 14.0473C39 14.7844 39 15.7489 39 17.6778V27.3222C39 29.2511 39 30.2156 38.6246 30.9527C38.2943 31.6008 37.7674 32.1277 37.1193 32.4579C36.3822 32.8333 35.4178 32.8333 33.4889 32.8333H13.5111C11.5822 32.8333 10.6178 32.8333 9.88067 32.4579C9.23258 32.1277 8.70567 31.6008 8.37544 30.9527C8 30.2156 8 29.2511 8 27.3222V12.1667ZM8 12.1667C8 10.5616 8 9.759 8.26178 9.12694C8.43488 8.70876 8.68871 8.32878 9.00875 8.00875C9.32878 7.68871 9.70876 7.43488 10.1269 7.26178C10.759 7 11.5616 7 13.1667 7H17.2018C18.6106 7 19.3133 7 19.9471 7.26178C20.5808 7.52356 21.0786 8.023 22.074 9.01844L25.2222 12.1667H8Z" fill="white"/>
<path d="M18.3333 22.5H23.4999ZM23.4999 22.5H28.6666ZM23.4999 22.5V27.6667ZM23.4999 22.5V17.3333Z" fill="white"/>
<path d="M18.3333 22.5H23.4999M23.4999 22.5H28.6666M23.4999 22.5V27.6667M23.4999 22.5V17.3333" stroke="#FFDD35" stroke-width="2"/>
</svg>
