<svg width="47" height="56" viewBox="0 0 47 56" fill="none" xmlns="http://www.w3.org/2000/svg">
<path d="M46.8572 0L46.8572 55.2727L23.4286 40.7273L3.43323e-05 55.2727L3.43323e-05 0L46.8572 0Z" fill="#4ECB71"/>
<path fill-rule="evenodd" clip-rule="evenodd" d="M23 35C24.8385 35 26.659 34.6379 28.3576 33.9343C30.0561 33.2307 31.5995 32.1995 32.8995 30.8995C34.1995 29.5995 35.2307 28.0561 35.9343 26.3576C36.6379 24.659 37 22.8385 37 21C37 19.1615 36.6379 17.341 35.9343 15.6424C35.2307 13.9439 34.1995 12.4005 32.8995 11.1005C31.5995 9.80048 30.0561 8.76925 28.3576 8.06569C26.659 7.36212 24.8385 7 23 7C19.287 7 15.726 8.475 13.1005 11.1005C10.475 13.726 9 17.287 9 21C9 24.713 10.475 28.274 13.1005 30.8995C15.726 33.525 19.287 35 23 35ZM22.6391 26.6622L30.4169 17.3289L28.0276 15.3378L21.3387 23.3629L17.8776 19.9002L15.678 22.0998L20.3447 26.7664L21.5487 27.9704L22.6391 26.6622Z" fill="white"/>
</svg>
