<svg width="47" height="56" viewBox="0 0 47 56" fill="none" xmlns="http://www.w3.org/2000/svg">
<path d="M46.8572 0L46.8572 55.2727L23.4286 40.7273L3.43323e-05 55.2727L3.43323e-05 0L46.8572 0Z" fill="#4E80CB"/>
<path d="M36.332 31.0005L28.7461 23.2903L25.4907 26.5992L33.0765 34.3094C33.9825 35.2302 35.4414 35.2302 36.332 34.3094C37.2227 33.3885 37.2227 31.9058 36.332 31.0005ZM31.2031 18.53C34.1668 18.53 36.5777 16.0796 36.5777 13.0673C36.5777 12.162 36.332 11.3192 35.9481 10.57L31.802 14.7841L29.5139 12.4586L33.6601 8.2445C32.923 7.8543 32.0938 7.60458 31.2031 7.60458C28.2394 7.60458 25.8285 10.055 25.8285 13.0673C25.8285 13.7072 25.9513 14.3159 26.151 14.8778L23.3101 17.7652L20.5767 14.987C20.7191 14.8426 20.832 14.6711 20.9091 14.4823C20.9862 14.2935 21.0258 14.0911 21.0258 13.8867C21.0258 13.6823 20.9862 13.4799 20.9091 13.2911C20.832 13.1022 20.7191 12.9307 20.5767 12.7863L19.4865 11.6782L22.7419 8.36936C21.8782 7.49251 20.7073 7 19.4865 7C18.2657 7 17.0948 7.49251 16.231 8.36936L11.9006 12.7863C11.7582 12.9307 11.6453 13.1022 11.5682 13.2911C11.4912 13.4799 11.4515 13.6823 11.4515 13.8867C11.4515 14.0911 11.4912 14.2935 11.5682 14.4823C11.6453 14.6711 11.7582 14.8426 11.9006 14.987L12.9909 16.0952H9.09043C8.79867 16.0952 8.52226 16.2044 8.32263 16.4229C8.22049 16.5247 8.13934 16.6461 8.08394 16.7801C8.02854 16.9141 8 17.058 8 17.2033C8 17.3487 8.02854 17.4926 8.08394 17.6266C8.13934 17.7606 8.22049 17.882 8.32263 17.9837L12.2231 21.9481C12.3231 22.0519 12.4426 22.1344 12.5744 22.1907C12.7063 22.247 12.8479 22.276 12.9909 22.276C13.1339 22.276 13.2754 22.247 13.4073 22.1907C13.5391 22.1344 13.6586 22.0519 13.7587 21.9481C13.9583 21.7452 14.0811 21.4642 14.0811 21.1677V17.2033L15.1561 18.2959C15.7549 18.9046 16.7224 18.9046 17.3213 18.2959L20.0546 21.074L10.3036 30.9849C10.0881 31.2012 9.91709 31.4588 9.80035 31.7428C9.68361 32.0268 9.6235 32.3315 9.6235 32.6393C9.6235 32.9471 9.68361 33.2518 9.80035 33.5358C9.91709 33.8198 10.0881 34.0774 10.3036 34.2937C11.2096 35.2146 12.6684 35.2146 13.559 34.2937L29.4064 18.2022C29.9746 18.4051 30.5735 18.53 31.2031 18.53Z" fill="white"/>
</svg>
